<?xml version="1.0" encoding="utf-8"?>
<!-- Generator: Adobe Illustrator 21.1.0, SVG Export Plug-In . SVG Version: 6.00 Build 0)  -->
<svg version="1.1" id="Layer_1" xmlns="http://www.w3.org/2000/svg" xmlns:xlink="http://www.w3.org/1999/xlink" x="0px" y="0px"
	 width="125px" height="125px" viewBox="0 0 500 500" enable-background="new 0 0 500 500" xml:space="preserve">
<path fill="#2D2D2B" d="M250,122.512c-52.06,0-94.263,44.001-94.263,98.276c0,72.942,94.263,156.701,94.263,156.7
	c-0.002,0.001,94.263-83.757,94.263-156.7C344.263,166.513,302.06,122.512,250,122.512z M250,260.344
	c-21.846,0-39.557-17.71-39.557-39.556s17.711-39.555,39.557-39.555s39.557,17.709,39.557,39.555S271.846,260.344,250,260.344z"/>
<circle fill="#F9C134" cx="250" cy="220.788" r="39.556"/>
<path fill="#FFFFFF" d="M250,173.233c-26.223,0-47.557,21.333-47.557,47.555c0,26.222,21.334,47.556,47.557,47.556
	c26.223,0,47.557-21.333,47.557-47.556C297.557,194.566,276.223,173.233,250,173.233z M250,260.344
	c-21.846,0-39.557-17.71-39.557-39.556s17.711-39.555,39.557-39.555s39.557,17.709,39.557,39.555S271.846,260.344,250,260.344z"/>
</svg>
