<svg xmlns="http://www.w3.org/2000/svg" width="41.5" height="41.5" viewBox="0 0 41.5 41.5">
  <metadata><?xpacket begin="﻿" id="W5M0MpCehiHzreSzNTczkc9d"?>
<x:xmpmeta xmlns:x="adobe:ns:meta/" x:xmptk="Adobe XMP Core 5.6-c140 79.160451, 2017/05/06-01:08:21        ">
   <rdf:RDF xmlns:rdf="http://www.w3.org/1999/02/22-rdf-syntax-ns#">
      <rdf:Description rdf:about=""/>
   </rdf:RDF>
</x:xmpmeta>
                                                                                                    
                                                                                                    
                                                                                                    
                                                                                                    
                                                                                                    
                                                                                                    
                                                                                                    
                                                                                                    
                                                                                                    
                                                                                                    
                                                                                                    
                                                                                                    
                                                                                                    
                                                                                                    
                                                                                                    
                                                                                                    
                                                                                                    
                                                                                                    
                                                                                                    
                                                                                                    
                           
<?xpacket end="w"?></metadata>
<defs>
    <style>
      .cls-1 {
        fill: #f8b82d;
        fill-rule: evenodd;
      }
    </style>
  </defs>
  <path class="cls-1" d="M348.906,3909.5H312.594a2.593,2.593,0,0,0-2.594,2.59v36.32a2.593,2.593,0,0,0,2.594,2.59h36.312a2.593,2.593,0,0,0,2.594-2.59v-36.32A2.593,2.593,0,0,0,348.906,3909.5Zm-24.64,32.42h-5.188v-18.15h5.188v18.15Zm-2.594-19.45a2.6,2.6,0,1,1,2.594-2.59A2.592,2.592,0,0,1,321.672,3922.47Zm20.75,19.45h-5.188v-10.37a2.594,2.594,0,1,0-5.187,0v10.37h-5.188v-18.15h5.188v2.59c0.3-1.27.918-2.59,4.538-2.59,5.161,0,5.837,3.89,5.837,9.07v9.08Z" transform="translate(-310 -3909.5)"/>
</svg>
